<?xml version="1.0" encoding="UTF-8"?><svg id="Layer_2" xmlns="http://www.w3.org/2000/svg" viewBox="0 0 196.67 49.92"><g id="Layer_1-2"><g><path d="M14.07,9.45c-.64,3.02-2.55,4.38-5.88,4.38H3.81L1.21,27.2H.57c-.47,0-.64-.21-.55-.68L4.19,4.85c.3-1.49,.77-2.17,1.57-2.94,.68-.64,1.49-1.15,2.38-1.53,.72-.3,1.28-.38,1.87-.38,.43,0,.94,.13,1.53,.3l1.79,.51c1.62,.47,2.13,1.32,1.7,3.58l-.98,5.07Zm-5.7,3.07c3.07,0,4-1.15,4.47-3.53l.85-4.43c.34-1.66,.3-2.13-.98-2.51l-1.7-.47c-1.24-.34-2.26-.26-3.49,.55-1.45,.94-1.83,1.92-2.09,3.28l-1.23,6.43c-.09,.51,.04,.68,.51,.68h3.66Z"/><path d="M26.76,27.2c-.47,0-.64-.21-.55-.68l1.83-9.45c.38-2.09-.26-3.28-2.17-3.28h-5.41l-2.6,13.41h-.64c-.47,0-.64-.21-.55-.68L20.84,4.81c.3-1.49,.77-2.17,1.58-2.94,.68-.64,1.4-1.11,2.3-1.49,.72-.3,1.19-.38,1.79-.38,.43,0,.94,.13,1.53,.3l1.79,.51c1.62,.47,2.09,1.32,1.66,3.58l-.98,5.07c-.34,1.66-1.23,2.98-2.94,3.58,1.75,.55,2.17,2.34,1.75,4.43l-1.92,9.75h-.64Zm3.36-22.65c.34-1.66,.34-2.13-.94-2.51l-1.66-.47c-1.11-.3-2.13-.3-3.36,.51-1.15,.77-1.79,1.7-2.09,3.28l-1.24,6.39c-.08,.51,.04,.72,.51,.72h3.45c3.07,0,4-1.11,4.47-3.49l.85-4.43Z"/><path d="M46,22.65c-.3,1.49-.77,2.17-1.57,2.94-.68,.64-1.49,1.15-2.38,1.53-.72,.3-1.28,.38-1.87,.38-.43,0-.89-.13-1.49-.3l-1.79-.51c-1.62-.47-2.09-1.32-1.66-3.58l3.53-18.26c.3-1.49,.77-2.17,1.58-2.94,.68-.64,1.49-1.15,2.38-1.53,.72-.3,1.24-.38,1.83-.38,.43,0,.94,.13,1.53,.3l1.79,.51c1.62,.47,2.09,1.32,1.66,3.58l-3.53,18.26Zm2.17-18.09c.34-1.66,.34-2.13-.94-2.51l-1.66-.47c-1.24-.34-2.26-.26-3.49,.55-1.45,.94-1.83,1.92-2.09,3.28l-3.41,17.54c-.34,1.66-.34,2.13,.94,2.51l1.66,.47c1.24,.34,2.26,.26,3.49-.55,1.45-.94,1.83-1.92,2.09-3.28l3.41-17.54Z"/><path d="M54.68,26.69c-1.62-.47-2.09-1.32-1.66-3.58l3.53-18.26c.3-1.49,.77-2.17,1.58-2.94,.68-.64,1.49-1.15,2.38-1.53,.72-.3,1.24-.38,1.83-.38,.43,0,.94,.13,1.53,.3l3.11,.89c.34,.09,.38,.3,.26,.55l-.26,.38c-.17,.26-.34,.38-.81,.26l-2.81-.81c-1.11-.3-2.26-.26-3.49,.55-1.15,.77-1.79,1.7-2.09,3.28l-3.41,17.54c-.34,1.66-.34,2.13,.94,2.51l1.66,.47c1.11,.3,2.26,.26,3.49-.55,1.15-.77,1.79-1.7,2.09-3.28l1.11-5.62c.08-.47-.04-.72-.51-.72h-1.36c-.47,0-.6-.21-.51-.64l.13-.68h3.32c.51,0,.6,.26,.51,.77l-1.45,7.45c-.3,1.49-.77,2.17-1.57,2.94-.68,.64-1.49,1.15-2.38,1.53-.72,.3-1.28,.38-1.87,.38-.43,0-.89-.13-1.49-.3l-1.79-.51Z"/><path d="M79.46,27.2c-.47,0-.64-.21-.55-.68l1.83-9.45c.38-2.09-.26-3.28-2.17-3.28h-5.41l-2.6,13.41h-.64c-.47,0-.64-.21-.55-.68l4.17-21.71c.3-1.49,.77-2.17,1.58-2.94,.68-.64,1.4-1.11,2.3-1.49,.72-.3,1.19-.38,1.79-.38,.43,0,.94,.13,1.53,.3l1.79,.51c1.62,.47,2.09,1.32,1.66,3.58l-.98,5.07c-.34,1.66-1.23,2.98-2.94,3.58,1.75,.55,2.17,2.34,1.75,4.43l-1.92,9.75h-.64Zm3.36-22.65c.34-1.66,.34-2.13-.94-2.51l-1.66-.47c-1.11-.3-2.13-.3-3.36,.51-1.15,.77-1.79,1.7-2.09,3.28l-1.24,6.39c-.08,.51,.04,.72,.51,.72h3.45c3.07,0,4-1.11,4.47-3.49l.85-4.43Z"/><path d="M91.42,4.85c.3-1.49,.77-2.17,1.58-2.94,.68-.64,1.49-1.15,2.38-1.53,.72-.3,1.23-.38,1.83-.38,.43,0,.94,.13,1.53,.3l1.79,.51c1.62,.47,2.09,1.32,1.66,3.58l-4.43,22.82h-.64c-.47,0-.64-.21-.55-.68l2.3-11.92c.09-.51-.04-.72-.51-.72h-7.32l-2.6,13.33h-.64c-.47,0-.64-.21-.55-.68l4.17-21.67Zm0,6.98c-.08,.51,.04,.72,.51,.72h7.32l1.58-8c.34-1.66,.34-2.13-.94-2.51l-1.66-.47c-1.23-.34-2.26-.26-3.49,.55-1.45,.94-1.83,1.92-2.09,3.28l-1.24,6.43Z"/><path d="M115.72,27.2c-.47,0-.64-.21-.55-.68l3.62-18.77c.43-2.13,.98-4.43,1.45-6.17-.98,1.49-2,3.19-3.11,4.81l-2.68,3.87c-.26,.38-.72,.3-.89-.21l-1.28-4c-.43-1.36-.89-3.32-1.11-4.47-.17,1.75-.68,4.56-1.06,6.56l-3.7,19.07h-.64c-.47,0-.64-.21-.55-.68L110.19,.94c.08-.34,.26-.55,.55-.68l.43-.17c.13-.04,.26-.04,.34-.04,.21,0,.3,.17,.43,.6l2.38,7.62,5.19-7.45c.38-.55,.6-.81,.94-.81,.13,0,.26,.04,.34,.09l.34,.13c.26,.09,.38,.38,.3,.89l-5.07,26.1h-.64Z"/><path d="M134.37,27.2c-.47,0-.64-.21-.55-.68l3.62-18.77c.43-2.13,.98-4.43,1.45-6.17-.98,1.49-2,3.19-3.11,4.81l-2.68,3.87c-.26,.38-.72,.3-.89-.21l-1.28-4c-.43-1.36-.89-3.32-1.11-4.47-.17,1.75-.68,4.56-1.06,6.56l-3.7,19.07h-.64c-.47,0-.64-.21-.55-.68L128.83,.94c.08-.34,.26-.55,.55-.68l.43-.17c.13-.04,.26-.04,.34-.04,.21,0,.3,.17,.43,.6l2.38,7.62,5.19-7.45c.38-.55,.6-.81,.94-.81,.13,0,.26,.04,.34,.09l.34,.13c.26,.09,.38,.38,.3,.89l-5.07,26.1h-.64Z"/><path d="M146.67,4.85c.3-1.49,.77-2.17,1.58-2.94,.68-.64,1.49-1.15,2.38-1.53,.72-.3,1.23-.38,1.83-.38,.43,0,.94,.13,1.53,.3l1.79,.51c1.62,.47,2.09,1.32,1.66,3.58l-4.43,22.82h-.64c-.47,0-.64-.21-.55-.68l2.3-11.92c.09-.51-.04-.72-.51-.72h-7.32l-2.6,13.33h-.64c-.47,0-.64-.21-.55-.68l4.17-21.67Zm0,6.98c-.08,.51,.04,.72,.51,.72h7.32l1.58-8c.34-1.66,.34-2.13-.94-2.51l-1.66-.47c-1.23-.34-2.26-.26-3.49,.55-1.45,.94-1.83,1.92-2.09,3.28l-1.24,6.43Z"/><path d="M162.89,27.2c-.47,0-.64-.21-.55-.68l4.85-24.91h-4.34c-.47,0-.64-.21-.55-.72l.13-.6h10.69c.47,0,.64,.21,.55,.68l-.13,.64h-5.02l-4.98,25.59h-.64Z"/><path d="M174.3,27.2h-.64c-.47,0-.64-.21-.55-.68L178.09,.94c.08-.43,.21-.6,.55-.72l.34-.13c.13-.04,.26-.09,.34-.09,.17,0,.25,.09,.21,.3l-5.24,26.91Z"/><path d="M185.92,4.85c.3-1.49,.77-2.17,1.58-2.94,.68-.64,1.49-1.15,2.38-1.53,.72-.3,1.24-.38,1.83-.38,.43,0,.94,.13,1.53,.3l3.11,.89c.34,.09,.38,.3,.26,.55l-.26,.38c-.17,.26-.34,.38-.81,.26l-2.81-.81c-1.24-.34-2.26-.26-3.49,.55-1.45,.94-1.83,1.92-2.09,3.28l-3.28,16.82c-.34,1.66-.34,2.13,.94,2.51l5.36,1.53c.51,.13,.51,.38,.34,.64l-.26,.38c-.08,.13-.26,.21-.47,.21s-.34-.04-.51-.08l-5.11-1.45c-1.62-.47-2.09-1.32-1.66-3.58l3.41-17.54Z"/></g><g><path d="M.36,45.63c.26,.31,.7,.77,1.6,.77,.81,0,1.4-.44,1.4-1.29,0-1.4-2.88-1.13-2.88-2.82,0-.84,.66-1.49,1.69-1.49,.64,0,1.3,.33,1.59,.69l-.28,.4c-.15-.17-.69-.61-1.35-.61-.86,0-1.13,.55-1.13,.96,0,1.26,2.91,1.1,2.91,2.88,0,1.07-.86,1.78-1.97,1.78-.97,0-1.64-.48-1.95-.89l.36-.37Z"/><path d="M5.78,46.73v-5.25h-1.07v-.5h1.07v-2.09h.54v2.09h1.4v.5h-1.4v5.25h-.54Z"/><path d="M12.99,40.96h.54v5.11c-.55,.53-1.3,.81-2.35,.81-1.4,0-2.38-.73-2.38-2.2v-3.71h.54v3.59c0,1.21,.7,1.82,1.82,1.82,.92,0,1.48-.29,1.82-.54v-4.87Z"/><path d="M20.01,36.69h.54v9.39c-.67,.54-1.52,.8-2.36,.8-1.6,0-3.14-.92-3.14-2.94,0-1.91,1.21-3.12,2.94-3.12,.76,0,1.54,.27,2.02,.73v-4.86Zm0,5.6c-.32-.56-1.15-.97-2.02-.97-1.42,0-2.38,.96-2.38,2.62s1.2,2.44,2.57,2.44c.54,0,1.22-.15,1.82-.58v-3.52Z"/><path d="M22.77,39.74c-.27,0-.49-.22-.49-.48,0-.29,.22-.5,.49-.5s.49,.21,.49,.5c0,.26-.21,.48-.49,.48Zm-.27,6.99v-5.77h.54v5.77h-.54Z"/><path d="M27.69,46.88c-1.72,0-3.06-1.31-3.06-3.02s1.35-3.04,3.06-3.04,3.05,1.35,3.05,3.04-1.34,3.02-3.05,3.02Zm-.02-5.55c-1.48,0-2.49,1.08-2.49,2.56s1.19,2.47,2.49,2.47c1.48,0,2.51-1.02,2.51-2.51s-1.16-2.52-2.51-2.52Z"/><path d="M35.55,46.73v-5.25h-.98v-.5h.98v-1.82c0-.83,.17-1.43,.49-1.82,.32-.38,.82-.58,1.33-.58,.45,0,.8,.15,.89,.22l-.26,.51c-.09-.06-.36-.2-.71-.2-.82,0-1.21,.69-1.21,1.74v1.95h1.43v.5h-1.43v5.25h-.54Z"/><path d="M41.26,46.88c-1.72,0-3.06-1.31-3.06-3.02s1.35-3.04,3.06-3.04,3.05,1.35,3.05,3.04-1.34,3.02-3.05,3.02Zm-.02-5.55c-1.48,0-2.49,1.08-2.49,2.56s1.19,2.47,2.49,2.47c1.48,0,2.51-1.02,2.51-2.51s-1.16-2.52-2.51-2.52Z"/><path d="M45.85,46.73v-5.77h.54v.8c.04-.26,.56-.94,1.22-.94,.4,0,.86,.21,.94,.26l-.32,.51c-.11-.07-.34-.22-.64-.22-.67,0-1.14,.73-1.21,1.16v4.2h-.54Z"/><path d="M57.5,45.87c-.54,.71-1.42,1-2.31,1-1.69,0-2.99-1.26-2.99-3.01s1.25-3.05,3.03-3.05c1.13,0,1.85,.61,2,.8l-.32,.37c-.13-.15-.75-.66-1.73-.66-1.14,0-2.41,.8-2.41,2.55,0,1.6,1.15,2.51,2.47,2.51,.98,0,1.54-.37,1.98-.83l.28,.33Z"/><path d="M61.39,46.88c-1.72,0-3.06-1.31-3.06-3.02s1.35-3.04,3.06-3.04,3.05,1.35,3.05,3.04-1.34,3.02-3.05,3.02Zm-.02-5.55c-1.48,0-2.49,1.08-2.49,2.56s1.19,2.47,2.49,2.47c1.48,0,2.51-1.02,2.51-2.51s-1.16-2.52-2.51-2.52Z"/><path d="M73.58,46.73v-3.77c0-1.09-.39-1.6-1.48-1.6-.77,0-1.42,.44-1.85,.86,.05,.2,.07,.42,.07,.66v3.86h-.54v-3.77c0-1.09-.39-1.6-1.48-1.6-.81,0-1.49,.51-1.78,.81v4.57h-.54v-5.77h.54v.62c.33-.29,1.1-.77,1.86-.77s1.41,.27,1.72,.93c.59-.54,1.41-.93,2.08-.93,1.14,0,1.93,.56,1.93,2.06v3.86h-.54Z"/><path d="M75.99,49.86v-8.24c.67-.55,1.53-.8,2.36-.8,1.6,0,3.14,1.02,3.14,3.06,0,1.59-1.03,3-2.82,3-.87,0-1.71-.42-2.14-.87v3.85h-.54Zm.54-4.58c.4,.6,1.22,1.1,2.14,1.1,1.22,0,2.25-.91,2.25-2.49,0-1.47-.99-2.57-2.65-2.57-.69,0-1.44,.28-1.75,.53v3.43Z"/><path d="M87.16,40.96h.54v5.11c-.55,.53-1.3,.81-2.35,.81-1.4,0-2.38-.73-2.38-2.2v-3.71h.54v3.59c0,1.21,.7,1.82,1.82,1.82,.92,0,1.48-.29,1.82-.54v-4.87Z"/><path d="M89.95,46.73v-5.25h-1.07v-.5h1.07v-2.09h.54v2.09h1.4v.5h-1.4v5.25h-.54Z"/><path d="M96.79,42.76c0-.82-.62-1.44-1.75-1.44-.77,0-1.44,.27-1.62,.34l-.25-.43c.36-.17,.98-.42,1.84-.42,1.85,0,2.31,.87,2.31,2.11v3.11c-.58,.55-1.44,.84-2.47,.84-1.65,0-2.41-.99-2.41-2.08,0-1.29,1.41-1.9,2.4-1.9,.76,0,1.47,.26,1.95,.72v-.86Zm0,1.41c-.37-.34-.98-.78-1.92-.78-.81,0-1.86,.43-1.86,1.41,0,1.07,.89,1.58,1.87,1.58,.86,0,1.49-.25,1.91-.58v-1.63Z"/><path d="M99.49,46.73v-5.25h-1.07v-.5h1.07v-2.09h.54v2.09h1.4v.5h-1.4v5.25h-.54Z"/><path d="M102.88,39.74c-.27,0-.49-.22-.49-.48,0-.29,.22-.5,.49-.5s.49,.21,.49,.5c0,.26-.21,.48-.49,.48Zm-.27,6.99v-5.77h.54v5.77h-.54Z"/><path d="M107.81,46.88c-1.72,0-3.06-1.31-3.06-3.02s1.35-3.04,3.06-3.04,3.05,1.35,3.05,3.04-1.34,3.02-3.05,3.02Zm-.02-5.55c-1.48,0-2.49,1.08-2.49,2.56s1.19,2.47,2.49,2.47c1.48,0,2.51-1.02,2.51-2.51s-1.16-2.52-2.51-2.52Z"/><path d="M116.57,46.73v-3.53c0-1.34-.51-1.85-1.73-1.85-.93,0-1.62,.51-1.9,.81v4.57h-.54v-5.77h.54v.62c.33-.29,.98-.77,1.98-.77,1.38,0,2.18,.67,2.18,2.17v3.75h-.54Z"/><path d="M122.82,42.76c0-.82-.62-1.44-1.75-1.44-.77,0-1.44,.27-1.62,.34l-.25-.43c.36-.17,.98-.42,1.84-.42,1.85,0,2.31,.87,2.31,2.11v3.11c-.58,.55-1.44,.84-2.47,.84-1.65,0-2.41-.99-2.41-2.08,0-1.29,1.41-1.9,2.4-1.9,.76,0,1.47,.26,1.95,.72v-.86Zm0,1.41c-.37-.34-.98-.78-1.92-.78-.81,0-1.86,.43-1.86,1.41,0,1.07,.89,1.58,1.87,1.58,.86,0,1.49-.25,1.91-.58v-1.63Z"/><path d="M125.26,46.73v-10.04h.54v10.04h-.54Z"/><path d="M130.75,49.86v-8.24c.67-.55,1.53-.8,2.36-.8,1.6,0,3.14,1.02,3.14,3.06,0,1.59-1.03,3-2.82,3-.87,0-1.71-.42-2.14-.87v3.85h-.54Zm.54-4.58c.4,.6,1.22,1.1,2.14,1.1,1.22,0,2.25-.91,2.25-2.49,0-1.47-.99-2.57-2.65-2.57-.69,0-1.44,.28-1.75,.53v3.43Z"/><path d="M137.79,46.73v-5.77h.54v.8c.04-.26,.56-.94,1.22-.94,.4,0,.86,.21,.94,.26l-.32,.51c-.11-.07-.34-.22-.64-.22-.67,0-1.14,.73-1.21,1.16v4.2h-.54Z"/><path d="M141.91,39.74c-.27,0-.49-.22-.49-.48,0-.29,.22-.5,.49-.5s.49,.21,.49,.5c0,.26-.21,.48-.49,.48Zm-.27,6.99v-5.77h.54v5.77h-.54Z"/><path d="M148.33,46.73v-3.53c0-1.34-.51-1.85-1.73-1.85-.93,0-1.62,.51-1.9,.81v4.57h-.54v-5.77h.54v.62c.33-.29,.98-.77,1.98-.77,1.38,0,2.18,.67,2.18,2.17v3.75h-.54Z"/><path d="M151.06,46.73v-5.25h-1.07v-.5h1.07v-2.09h.54v2.09h1.4v.5h-1.4v5.25h-.54Z"/><path d="M161.73,46.73v-3.77c0-1.09-.39-1.6-1.48-1.6-.77,0-1.42,.44-1.85,.86,.05,.2,.07,.42,.07,.66v3.86h-.54v-3.77c0-1.09-.39-1.6-1.48-1.6-.81,0-1.49,.51-1.78,.81v4.57h-.54v-5.77h.54v.62c.33-.29,1.1-.77,1.86-.77s1.41,.27,1.72,.93c.59-.54,1.41-.93,2.08-.93,1.14,0,1.93,.56,1.93,2.06v3.86h-.54Z"/><path d="M167.98,42.76c0-.82-.62-1.44-1.75-1.44-.77,0-1.44,.27-1.62,.34l-.25-.43c.36-.17,.98-.42,1.84-.42,1.85,0,2.31,.87,2.31,2.11v3.11c-.58,.55-1.44,.84-2.47,.84-1.65,0-2.41-.99-2.41-2.08,0-1.29,1.41-1.9,2.4-1.9,.76,0,1.47,.26,1.95,.72v-.86Zm0,1.41c-.37-.34-.98-.78-1.92-.78-.81,0-1.86,.43-1.86,1.41,0,1.07,.89,1.58,1.87,1.58,.86,0,1.49-.25,1.91-.58v-1.63Z"/><path d="M173.94,46.73l-3.07-3.05v3.05h-.54v-10.04h.54v6.75l2.46-2.47h.75l-2.61,2.55,3.34,3.22h-.87Z"/><path d="M176.07,39.74c-.27,0-.49-.22-.49-.48,0-.29,.22-.5,.49-.5s.49,.21,.49,.5c0,.26-.21,.48-.49,.48Zm-.27,6.99v-5.77h.54v5.77h-.54Z"/><path d="M182.49,46.73v-3.53c0-1.34-.51-1.85-1.73-1.85-.93,0-1.62,.51-1.9,.81v4.57h-.54v-5.77h.54v.62c.33-.29,.98-.77,1.98-.77,1.38,0,2.18,.67,2.18,2.17v3.75h-.54Z"/><path d="M189.5,45.83c-.5,.64-1.35,1.05-2.15,1.05-1.37,0-2.81-1.08-2.81-3s1.53-3.06,3.14-3.06c1.18,0,2.03,.48,2.36,.8v5.46c0,2.19-1.37,2.84-2.66,2.84-.71,0-1.47-.17-2.23-.66l.28-.44c.62,.42,1.38,.59,2,.59,.84,0,2.07-.29,2.07-2.34v-1.24Zm0-3.98c-.2-.13-.84-.53-1.85-.53-1.3,0-2.55,.84-2.55,2.56,0,1.13,.71,2.49,2.4,2.49,.69,0,1.6-.53,2-1.21v-3.31Z"/></g></g></svg>