<svg xmlns="http://www.w3.org/2000/svg" xmlns:xlink="http://www.w3.org/1999/xlink" width="393.191" height="97.52" viewBox="0 0 393.191 97.52">
  <defs>
    <clipPath id="clip-path">
      <rect id="Rectangle_6" data-name="Rectangle 6" width="393.191" height="97.52" fill="none"/>
    </clipPath>
  </defs>
  <g id="Group_6" data-name="Group 6" transform="translate(0 0.001)">
    <g id="Group_5" data-name="Group 5" transform="translate(0 -0.001)" clip-path="url(#clip-path)">
      <path id="Path_76" data-name="Path 76" d="M18.278,53.929a3.7,3.7,0,0,0,.378,1.5,3.569,3.569,0,0,0,2.1,1.8,4.8,4.8,0,0,0,1.534.234,8.067,8.067,0,0,0,1.261-.1,4.393,4.393,0,0,0,1.25-.388,2.608,2.608,0,0,0,.956-.791,2.1,2.1,0,0,0,.376-1.285,1.9,1.9,0,0,0-.612-1.532,4.287,4.287,0,0,0-1.544-.8,15.655,15.655,0,0,0-2.005-.461,10.331,10.331,0,0,1-2-.53,4.053,4.053,0,0,1-1.544-1,3.129,3.129,0,0,1-.213-3.394,2.971,2.971,0,0,1,1.025-.956,4.671,4.671,0,0,1,1.4-.507,8.113,8.113,0,0,1,1.557-.152,7.062,7.062,0,0,1,1.768.211,3.857,3.857,0,0,1,1.427.684,3.282,3.282,0,0,1,.943,1.2,4.172,4.172,0,0,1,.34,1.769h-.9a3.368,3.368,0,0,0-.271-1.415,2.466,2.466,0,0,0-.755-.956,3.288,3.288,0,0,0-1.144-.543,5.48,5.48,0,0,0-1.413-.176,6.723,6.723,0,0,0-1.239.117,3.612,3.612,0,0,0-1.119.4,2.505,2.505,0,0,0-.814.73,1.825,1.825,0,0,0-.319,1.085,1.846,1.846,0,0,0,.355,1.179,2.5,2.5,0,0,0,.931.718,6.315,6.315,0,0,0,1.3.438l1.45.33q.9.165,1.686.388a4.829,4.829,0,0,1,1.369.613,2.777,2.777,0,0,1,.906,1,3.246,3.246,0,0,1,.332,1.557,2.758,2.758,0,0,1-.449,1.628,3.464,3.464,0,0,1-1.131,1.025,4.839,4.839,0,0,1-1.521.543,9.037,9.037,0,0,1-1.638.154,6.573,6.573,0,0,1-1.922-.271,4.333,4.333,0,0,1-1.544-.826,3.941,3.941,0,0,1-1.039-1.355,4.61,4.61,0,0,1-.4-1.863Z" transform="translate(13.436 35.219)"/>
      <path id="Path_77" data-name="Path 77" d="M29.077,48.142H26.434v8.464a3.237,3.237,0,0,0,.167,1.156,1.321,1.321,0,0,0,.509.649,1.774,1.774,0,0,0,.824.27,8.06,8.06,0,0,0,1.121.023v.78a8.361,8.361,0,0,1-1.335-.012,2.7,2.7,0,0,1-1.144-.353,2.086,2.086,0,0,1-.789-.885,3.338,3.338,0,0,1-.246-1.628V48.142H23.3v-.778H25.54V43.591h.894v3.773h2.644Z" transform="translate(18.011 33.698)"/>
      <path id="Path_78" data-name="Path 78" d="M37.085,57.838h-.9V55.244h-.046a3.9,3.9,0,0,1-.672,1.215,4.46,4.46,0,0,1-2.277,1.473,5.194,5.194,0,0,1-1.39.19,5.523,5.523,0,0,1-1.8-.259,3.546,3.546,0,0,1-1.215-.684,3.255,3.255,0,0,1-.743-.956,4.475,4.475,0,0,1-.39-1.073,6.41,6.41,0,0,1-.142-1.05c-.014-.337-.023-.631-.023-.885v-7.5h.9v7.665a11.014,11.014,0,0,0,.071,1.144,3.4,3.4,0,0,0,.411,1.3A3.013,3.013,0,0,0,29.894,56.9a3.522,3.522,0,0,0,1.933.447,4.293,4.293,0,0,0,1.828-.376,3.953,3.953,0,0,0,1.379-1.05,4.608,4.608,0,0,0,.86-1.6,6.725,6.725,0,0,0,.294-2.041V45.718h.9Z" transform="translate(21.249 35.342)"/>
      <path id="Path_79" data-name="Path 79" d="M44,57.3h-.046a5.515,5.515,0,0,1-1.886,2.156,5.639,5.639,0,0,1-5.117.2,4.66,4.66,0,0,1-1.628-1.392,6.036,6.036,0,0,1-.943-2.016,9.608,9.608,0,0,1,.023-4.9,5.747,5.747,0,0,1,1-2.018,4.814,4.814,0,0,1,1.684-1.344,5.381,5.381,0,0,1,2.383-.495,5.282,5.282,0,0,1,1.438.2,5.052,5.052,0,0,1,1.308.578,4.155,4.155,0,0,1,1.734,2.216H44V43.059h.9V59.9H44Zm-4.5,2.1a3.988,3.988,0,0,0,1.993-.472,4.254,4.254,0,0,0,1.392-1.248A5.536,5.536,0,0,0,43.7,55.9a7.761,7.761,0,0,0,.271-2.039,7.867,7.867,0,0,0-.271-2.064A5.814,5.814,0,0,0,42.89,50a4.039,4.039,0,0,0-1.4-1.262,4.141,4.141,0,0,0-2.016-.472,4.23,4.23,0,0,0-2.051.461,4.067,4.067,0,0,0-1.4,1.238,5.165,5.165,0,0,0-.8,1.791,8.835,8.835,0,0,0-.246,2.1,7.793,7.793,0,0,0,.271,2.064,5.47,5.47,0,0,0,.824,1.78,4.1,4.1,0,0,0,1.4,1.238,4.205,4.205,0,0,0,2.028.459" transform="translate(26.338 33.286)"/>
      <path id="Path_80" data-name="Path 80" d="M41.9,43.058h.9v2.429h-.9Zm0,4.716h.9v12.12h-.9Z" transform="translate(32.393 33.286)"/>
      <path id="Path_81" data-name="Path 81" d="M43.7,51.9a7.94,7.94,0,0,1,.367-2.44,6.111,6.111,0,0,1,1.073-2.016,5.1,5.1,0,0,1,1.745-1.379,5.844,5.844,0,0,1,4.762,0,5.128,5.128,0,0,1,1.746,1.379,6.141,6.141,0,0,1,1.071,2.016,7.94,7.94,0,0,1,.367,2.44,8.045,8.045,0,0,1-.367,2.452,5.968,5.968,0,0,1-1.071,2.016,5.165,5.165,0,0,1-1.746,1.369,5.844,5.844,0,0,1-4.762,0,5.141,5.141,0,0,1-1.745-1.369,5.941,5.941,0,0,1-1.073-2.016A8.045,8.045,0,0,1,43.7,51.9m.9,0A7.131,7.131,0,0,0,44.9,53.99a5.632,5.632,0,0,0,.9,1.778,4.328,4.328,0,0,0,1.463,1.238,4.588,4.588,0,0,0,4.009,0,4.356,4.356,0,0,0,1.461-1.238,5.673,5.673,0,0,0,.9-1.778,7.3,7.3,0,0,0,0-4.175,5.682,5.682,0,0,0-.9-1.78A4.4,4.4,0,0,0,51.27,46.8a4.6,4.6,0,0,0-4.009,0A4.368,4.368,0,0,0,45.8,48.034a5.641,5.641,0,0,0-.9,1.78A7.11,7.11,0,0,0,44.6,51.9" transform="translate(33.78 35.219)"/>
      <path id="Path_82" data-name="Path 82" d="M54.113,48.636v-.778h2.17v-2.5a2.587,2.587,0,0,1,.211-1.1,1.961,1.961,0,0,1,.578-.743,2.533,2.533,0,0,1,.849-.426,3.633,3.633,0,0,1,1.025-.14,6.409,6.409,0,0,1,1.062.117v.778a6.41,6.41,0,0,0-1.062-.117,2.2,2.2,0,0,0-1.261.342,1.527,1.527,0,0,0-.507,1.355v2.429H59.7v.778H57.179V59.978h-.9V48.636Z" transform="translate(41.831 33.205)"/>
      <path id="Path_83" data-name="Path 83" d="M57.743,51.9a7.94,7.94,0,0,1,.367-2.44,6.111,6.111,0,0,1,1.073-2.016,5.1,5.1,0,0,1,1.745-1.379,5.844,5.844,0,0,1,4.762,0,5.128,5.128,0,0,1,1.746,1.379,6.141,6.141,0,0,1,1.071,2.016,7.94,7.94,0,0,1,.367,2.44,8.045,8.045,0,0,1-.367,2.452,5.968,5.968,0,0,1-1.071,2.016,5.164,5.164,0,0,1-1.746,1.369,5.844,5.844,0,0,1-4.762,0,5.141,5.141,0,0,1-1.745-1.369,5.941,5.941,0,0,1-1.073-2.016,8.045,8.045,0,0,1-.367-2.452m.9,0a7.131,7.131,0,0,0,.307,2.089,5.632,5.632,0,0,0,.9,1.778A4.328,4.328,0,0,0,61.3,57.006a4.588,4.588,0,0,0,4.009,0,4.356,4.356,0,0,0,1.461-1.238,5.673,5.673,0,0,0,.9-1.778,7.3,7.3,0,0,0,0-4.175,5.682,5.682,0,0,0-.9-1.78A4.4,4.4,0,0,0,65.314,46.8a4.6,4.6,0,0,0-4.009,0,4.368,4.368,0,0,0-1.463,1.238,5.641,5.641,0,0,0-.9,1.78A7.11,7.11,0,0,0,58.64,51.9" transform="translate(44.637 35.219)"/>
      <path id="Path_84" data-name="Path 84" d="M66.1,48.438h.071a2.959,2.959,0,0,1,.6-1.108,4.259,4.259,0,0,1,1.06-.9,5.279,5.279,0,0,1,1.392-.578,5.636,5.636,0,0,1,1.592-.177v.9a4.209,4.209,0,0,0-1.615.142,3.918,3.918,0,0,0-1.734,1.037,8.385,8.385,0,0,0-.576.683,3.244,3.244,0,0,0-.413.732,4.673,4.673,0,0,0-.261.9,7.988,7.988,0,0,0-.117,1.179V57.87h-.9V45.75h.9Z" transform="translate(50.403 35.31)"/>
      <path id="Path_85" data-name="Path 85" d="M81.96,49.591a3.538,3.538,0,0,0-.413-1.415,3.154,3.154,0,0,0-.885-1.014,4.052,4.052,0,0,0-1.261-.613,5.491,5.491,0,0,0-1.544-.211,4.234,4.234,0,0,0-2.005.459,4.393,4.393,0,0,0-1.461,1.227,5.531,5.531,0,0,0-.9,1.745,6.665,6.665,0,0,0-.307,2.016,8.593,8.593,0,0,0,.282,2.262,5.169,5.169,0,0,0,.872,1.8,4.059,4.059,0,0,0,1.463,1.19,4.627,4.627,0,0,0,2.051.426,4.255,4.255,0,0,0,1.567-.284,4.19,4.19,0,0,0,1.273-.777,4.017,4.017,0,0,0,.908-1.191,4.778,4.778,0,0,0,.472-1.521h.9a5.667,5.667,0,0,1-.59,1.934,4.72,4.72,0,0,1-1.131,1.426,4.878,4.878,0,0,1-1.557.885,6.023,6.023,0,0,1-4.374-.225A4.851,4.851,0,0,1,73.6,56.288a6.063,6.063,0,0,1-.989-2.062,9.228,9.228,0,0,1-.319-2.441,7.79,7.79,0,0,1,.365-2.4A5.9,5.9,0,0,1,73.732,47.4a5.085,5.085,0,0,1,1.745-1.344,5.471,5.471,0,0,1,2.381-.495,6.616,6.616,0,0,1,1.851.248,4.786,4.786,0,0,1,1.532.741,3.9,3.9,0,0,1,1.1,1.262,4.5,4.5,0,0,1,.518,1.78Z" transform="translate(55.883 35.219)"/>
      <path id="Path_86" data-name="Path 86" d="M79.18,51.9a7.94,7.94,0,0,1,.367-2.44,6.083,6.083,0,0,1,1.074-2.016,5.082,5.082,0,0,1,1.743-1.379,5.844,5.844,0,0,1,4.762,0,5.128,5.128,0,0,1,1.746,1.379,6.14,6.14,0,0,1,1.071,2.016,7.94,7.94,0,0,1,.367,2.44,8.045,8.045,0,0,1-.367,2.452,5.968,5.968,0,0,1-1.071,2.016,5.164,5.164,0,0,1-1.746,1.369,5.844,5.844,0,0,1-4.762,0,5.117,5.117,0,0,1-1.743-1.369,5.914,5.914,0,0,1-1.074-2.016A8.045,8.045,0,0,1,79.18,51.9m.9,0a7.13,7.13,0,0,0,.3,2.089,5.632,5.632,0,0,0,.9,1.778,4.327,4.327,0,0,0,1.463,1.238,4.592,4.592,0,0,0,4.011,0,4.367,4.367,0,0,0,1.459-1.238,5.673,5.673,0,0,0,.9-1.778,7.3,7.3,0,0,0,0-4.175,5.682,5.682,0,0,0-.9-1.78A4.408,4.408,0,0,0,86.753,46.8a4.608,4.608,0,0,0-4.011,0,4.368,4.368,0,0,0-1.463,1.238,5.641,5.641,0,0,0-.9,1.78,7.109,7.109,0,0,0-.3,2.087" transform="translate(61.208 35.219)"/>
      <path id="Path_87" data-name="Path 87" d="M86.655,45.843h.9v2.475H87.6a3.247,3.247,0,0,1,.495-1.073,3.838,3.838,0,0,1,.862-.883,4.084,4.084,0,0,1,2.44-.8,4.532,4.532,0,0,1,1.511.225,3.572,3.572,0,0,1,1.083.589,2.971,2.971,0,0,1,.707.824,3.184,3.184,0,0,1,.353.933H95.1a4.413,4.413,0,0,1,1.45-1.922,4.027,4.027,0,0,1,2.394-.649,4.518,4.518,0,0,1,1.521.248,3.192,3.192,0,0,1,1.2.755,3.471,3.471,0,0,1,.791,1.285,5.4,5.4,0,0,1,.282,1.839v8.276h-.9v-8.3a3.874,3.874,0,0,0-.355-1.816,2.847,2.847,0,0,0-.837-1,2.38,2.38,0,0,0-.966-.424,4.764,4.764,0,0,0-.743-.082,4.019,4.019,0,0,0-1.521.282,3.216,3.216,0,0,0-1.2.849,4,4,0,0,0-.791,1.4,6.016,6.016,0,0,0-.282,1.922v7.168h-.9v-8.3a4,4,0,0,0-.342-1.8,2.7,2.7,0,0,0-.8-1,2.387,2.387,0,0,0-.941-.424,4.156,4.156,0,0,0-.768-.094,3.726,3.726,0,0,0-1.319.257,3.676,3.676,0,0,0-1.25.8,4.05,4.05,0,0,0-.92,1.39,5.2,5.2,0,0,0-.353,2.005v7.168h-.9Z" transform="translate(66.986 35.219)"/>
      <path id="Path_88" data-name="Path 88" d="M98.219,48.625h.046a4.661,4.661,0,0,1,.473-.991,4.138,4.138,0,0,1,.874-1,4.67,4.67,0,0,1,3.073-1.073,5.32,5.32,0,0,1,2.424.52,4.911,4.911,0,0,1,1.7,1.392,5.918,5.918,0,0,1,1.005,2.027,8.813,8.813,0,0,1,.332,2.429,9.25,9.25,0,0,1-.332,2.546,5.543,5.543,0,0,1-1.005,1.993,4.606,4.606,0,0,1-1.7,1.308,5.751,5.751,0,0,1-2.424.472,5.427,5.427,0,0,1-2.693-.66,3.857,3.857,0,0,1-1.727-2.147h-.046V62.3h-.872V45.843h.872Zm4.468,8.842a4.39,4.39,0,0,0,2.044-.447,4.068,4.068,0,0,0,1.418-1.2,5.224,5.224,0,0,0,.828-1.757,8.313,8.313,0,0,0,.011-4.172,5.567,5.567,0,0,0-.8-1.793,4.117,4.117,0,0,0-1.406-1.273,4.742,4.742,0,0,0-4.149-.012,4,4,0,0,0-1.383,1.25,5.256,5.256,0,0,0-.769,1.78,9.05,9.05,0,0,0-.236,2.087,10.024,10.024,0,0,0,.213,2.087,5.033,5.033,0,0,0,.722,1.768,3.676,3.676,0,0,0,1.371,1.227,4.512,4.512,0,0,0,2.14.459" transform="translate(75.251 35.219)"/>
      <path id="Path_89" data-name="Path 89" d="M114.22,57.838h-.9V55.244h-.046a3.9,3.9,0,0,1-.672,1.215,4.46,4.46,0,0,1-2.277,1.473,5.194,5.194,0,0,1-1.39.19,5.523,5.523,0,0,1-1.8-.259,3.546,3.546,0,0,1-1.215-.684,3.255,3.255,0,0,1-.743-.956,4.476,4.476,0,0,1-.39-1.073,6.41,6.41,0,0,1-.142-1.05c-.014-.337-.023-.631-.023-.885v-7.5h.9v7.665a11.009,11.009,0,0,0,.071,1.144,3.429,3.429,0,0,0,.411,1.3,3.013,3.013,0,0,0,1.027,1.073,3.522,3.522,0,0,0,1.933.447,4.293,4.293,0,0,0,1.828-.376,3.953,3.953,0,0,0,1.379-1.05,4.608,4.608,0,0,0,.86-1.6,6.725,6.725,0,0,0,.294-2.041V45.718h.9Z" transform="translate(80.874 35.342)"/>
      <path id="Path_90" data-name="Path 90" d="M116.556,48.142h-2.642v8.464a3.237,3.237,0,0,0,.167,1.156,1.318,1.318,0,0,0,.507.649,1.781,1.781,0,0,0,.824.27,8.06,8.06,0,0,0,1.121.023v.78a8.341,8.341,0,0,1-1.333-.012,2.692,2.692,0,0,1-1.144-.353,2.075,2.075,0,0,1-.789-.885,3.336,3.336,0,0,1-.248-1.628V48.142h-2.239v-.778h2.239V43.591h.9v3.773h2.642Z" transform="translate(85.635 33.698)"/>
      <path id="Path_91" data-name="Path 91" d="M123.255,55.557h-.048a3.73,3.73,0,0,1-.612,1.025,4.364,4.364,0,0,1-.979.862,4.921,4.921,0,0,1-1.308.589,5.731,5.731,0,0,1-1.6.213,4.739,4.739,0,0,1-2.995-.837,3.088,3.088,0,0,1-1.06-2.583,3.024,3.024,0,0,1,1.5-2.793,4.581,4.581,0,0,1,1.44-.555,13.838,13.838,0,0,1,1.521-.236l1.39-.117a8.212,8.212,0,0,0,1.521-.225,1.929,1.929,0,0,0,.837-.426,1.2,1.2,0,0,0,.353-.7,6.51,6.51,0,0,0,.071-1.06,2.242,2.242,0,0,0-.188-.92,2.078,2.078,0,0,0-.589-.754,2.926,2.926,0,0,0-1.039-.519,5.533,5.533,0,0,0-1.555-.188,4.074,4.074,0,0,0-2.629.8,3.176,3.176,0,0,0-1.1,2.429h-.9a3.964,3.964,0,0,1,1.285-3.007,5.117,5.117,0,0,1,3.383-1,4.859,4.859,0,0,1,3.195.86,2.828,2.828,0,0,1,1,2.252v7.051c0,.172,0,.346.012.518a1.679,1.679,0,0,0,.083.472.7.7,0,0,0,.236.342.743.743,0,0,0,.472.129,4.411,4.411,0,0,0,.66-.069v.754a2.865,2.865,0,0,1-.73.094,2.138,2.138,0,0,1-.862-.142,1.14,1.14,0,0,1-.482-.376,1.373,1.373,0,0,1-.225-.555,3.849,3.849,0,0,1-.059-.7Zm0-4.48a1.708,1.708,0,0,1-1,.543,12.343,12.343,0,0,1-1.5.211l-1.509.142q-.66.072-1.321.2a3.811,3.811,0,0,0-1.19.438,2.424,2.424,0,0,0-.86.835,2.567,2.567,0,0,0-.332,1.379,2.346,2.346,0,0,0,.849,1.993,3.759,3.759,0,0,0,2.335.649,4.577,4.577,0,0,0,2.427-.555,4.294,4.294,0,0,0,1.369-1.273,3.931,3.931,0,0,0,.6-1.39,5.853,5.853,0,0,0,.129-.91Z" transform="translate(88.626 35.219)"/>
      <path id="Path_92" data-name="Path 92" d="M126.649,48.142h-2.642v8.464a3.236,3.236,0,0,0,.167,1.156,1.318,1.318,0,0,0,.507.649,1.781,1.781,0,0,0,.824.27,8.059,8.059,0,0,0,1.121.023v.78a8.341,8.341,0,0,1-1.333-.012,2.692,2.692,0,0,1-1.144-.353,2.075,2.075,0,0,1-.789-.885,3.336,3.336,0,0,1-.248-1.628V48.142h-2.239v-.778h2.239V43.591h.9v3.773h2.642Z" transform="translate(93.438 33.698)"/>
      <path id="Path_93" data-name="Path 93" d="M125.182,43.058h.9v2.429h-.9Zm0,4.716h.9v12.12h-.9Z" transform="translate(96.769 33.286)"/>
      <path id="Path_94" data-name="Path 94" d="M126.977,51.9a7.94,7.94,0,0,1,.367-2.44,6.112,6.112,0,0,1,1.073-2.016,5.1,5.1,0,0,1,1.745-1.379,5.844,5.844,0,0,1,4.762,0,5.128,5.128,0,0,1,1.746,1.379,6.141,6.141,0,0,1,1.071,2.016,7.94,7.94,0,0,1,.367,2.44,8.045,8.045,0,0,1-.367,2.452,5.969,5.969,0,0,1-1.071,2.016,5.164,5.164,0,0,1-1.746,1.369,5.844,5.844,0,0,1-4.762,0,5.141,5.141,0,0,1-1.745-1.369,5.941,5.941,0,0,1-1.073-2.016,8.045,8.045,0,0,1-.367-2.452m.9,0a7.131,7.131,0,0,0,.307,2.089,5.632,5.632,0,0,0,.9,1.778,4.328,4.328,0,0,0,1.463,1.238,4.588,4.588,0,0,0,4.009,0,4.355,4.355,0,0,0,1.461-1.238,5.672,5.672,0,0,0,.9-1.778,7.3,7.3,0,0,0,0-4.175,5.682,5.682,0,0,0-.9-1.78,4.4,4.4,0,0,0-1.461-1.238,4.6,4.6,0,0,0-4.009,0,4.368,4.368,0,0,0-1.463,1.238,5.642,5.642,0,0,0-.9,1.78,7.11,7.11,0,0,0-.307,2.087" transform="translate(98.156 35.219)"/>
      <path id="Path_95" data-name="Path 95" d="M134.438,45.843h.9v2.594h.046a3.9,3.9,0,0,1,.672-1.215,4.46,4.46,0,0,1,2.277-1.473,5.2,5.2,0,0,1,1.39-.19,5.523,5.523,0,0,1,1.8.259,3.546,3.546,0,0,1,1.215.684,3.285,3.285,0,0,1,.743.956,4.473,4.473,0,0,1,.39,1.073,6.408,6.408,0,0,1,.142,1.05c.014.339.023.633.023.885v7.5h-.9V50.3a11.175,11.175,0,0,0-.071-1.131,3.438,3.438,0,0,0-.411-1.308,3.016,3.016,0,0,0-1.037-1.073,3.54,3.54,0,0,0-1.922-.447,4.264,4.264,0,0,0-1.839.376,3.979,3.979,0,0,0-1.369,1.05,4.608,4.608,0,0,0-.86,1.6,6.725,6.725,0,0,0-.294,2.041v6.555h-.9Z" transform="translate(103.924 35.219)"/>
      <path id="Path_96" data-name="Path 96" d="M153.324,55.557h-.048a3.729,3.729,0,0,1-.612,1.025,4.363,4.363,0,0,1-.979.862,4.921,4.921,0,0,1-1.308.589,5.732,5.732,0,0,1-1.6.213,4.739,4.739,0,0,1-2.995-.837,3.088,3.088,0,0,1-1.06-2.583,3.024,3.024,0,0,1,1.5-2.793,4.581,4.581,0,0,1,1.44-.555,13.839,13.839,0,0,1,1.521-.236l1.39-.117a8.212,8.212,0,0,0,1.521-.225,1.929,1.929,0,0,0,.837-.426,1.2,1.2,0,0,0,.353-.7,6.508,6.508,0,0,0,.071-1.06,2.242,2.242,0,0,0-.188-.92,2.077,2.077,0,0,0-.589-.754,2.927,2.927,0,0,0-1.039-.519,5.534,5.534,0,0,0-1.555-.188,4.074,4.074,0,0,0-2.629.8,3.176,3.176,0,0,0-1.1,2.429h-.9a3.964,3.964,0,0,1,1.285-3.007,5.117,5.117,0,0,1,3.383-1,4.858,4.858,0,0,1,3.195.86,2.828,2.828,0,0,1,1,2.252v7.051c0,.172,0,.346.012.518a1.678,1.678,0,0,0,.083.472.7.7,0,0,0,.236.342.743.743,0,0,0,.472.129,4.411,4.411,0,0,0,.66-.069v.754a2.865,2.865,0,0,1-.73.094,2.138,2.138,0,0,1-.862-.142,1.14,1.14,0,0,1-.482-.376,1.373,1.373,0,0,1-.225-.555,3.849,3.849,0,0,1-.059-.7Zm0-4.48a1.708,1.708,0,0,1-1,.543,12.344,12.344,0,0,1-1.5.211l-1.509.142q-.66.072-1.321.2a3.81,3.81,0,0,0-1.19.438,2.424,2.424,0,0,0-.86.835,2.567,2.567,0,0,0-.332,1.379,2.346,2.346,0,0,0,.849,1.993,3.76,3.76,0,0,0,2.335.649,4.577,4.577,0,0,0,2.427-.555,4.294,4.294,0,0,0,1.369-1.273,3.931,3.931,0,0,0,.6-1.39,5.851,5.851,0,0,0,.129-.91Z" transform="translate(111.87 35.219)"/>
      <path id="Path_97" data-name="Path 97" d="M151.686,45.843h.9v2.594h.046a3.9,3.9,0,0,1,.672-1.215,4.46,4.46,0,0,1,2.277-1.473,5.194,5.194,0,0,1,1.39-.19,5.524,5.524,0,0,1,1.8.259,3.546,3.546,0,0,1,1.214.684,3.315,3.315,0,0,1,.743.956,4.475,4.475,0,0,1,.39,1.073,6.411,6.411,0,0,1,.142,1.05c.014.339.023.633.023.885v7.5h-.9V50.3a11.173,11.173,0,0,0-.071-1.131,3.438,3.438,0,0,0-.411-1.308,3.016,3.016,0,0,0-1.037-1.073,3.54,3.54,0,0,0-1.922-.447,4.264,4.264,0,0,0-1.839.376,3.98,3.98,0,0,0-1.369,1.05,4.608,4.608,0,0,0-.86,1.6,6.724,6.724,0,0,0-.294,2.041v6.555h-.9Z" transform="translate(117.257 35.219)"/>
      <path id="Path_98" data-name="Path 98" d="M168.2,57.3h-.046a5.515,5.515,0,0,1-1.886,2.156,5.639,5.639,0,0,1-5.117.2,4.66,4.66,0,0,1-1.628-1.392,6.037,6.037,0,0,1-.943-2.016,9.608,9.608,0,0,1,.023-4.9,5.748,5.748,0,0,1,1-2.018,4.814,4.814,0,0,1,1.684-1.344,5.381,5.381,0,0,1,2.383-.495,5.282,5.282,0,0,1,1.438.2,5.052,5.052,0,0,1,1.308.578,4.155,4.155,0,0,1,1.734,2.216h.046V43.059h.9V59.9h-.9Zm-4.5,2.1a3.988,3.988,0,0,0,1.993-.472,4.271,4.271,0,0,0,1.392-1.248A5.535,5.535,0,0,0,167.9,55.9a7.76,7.76,0,0,0,.271-2.039,7.867,7.867,0,0,0-.271-2.064A5.814,5.814,0,0,0,167.088,50a4.039,4.039,0,0,0-1.4-1.262,4.141,4.141,0,0,0-2.016-.472,4.23,4.23,0,0,0-2.051.461,4.067,4.067,0,0,0-1.4,1.238,5.166,5.166,0,0,0-.8,1.791,8.835,8.835,0,0,0-.246,2.1,7.792,7.792,0,0,0,.271,2.064,5.47,5.47,0,0,0,.824,1.78,4.1,4.1,0,0,0,1.4,1.238,4.2,4.2,0,0,0,2.028.459" transform="translate(122.346 33.286)"/>
      <path id="Path_99" data-name="Path 99" d="M179.042,49.591a3.538,3.538,0,0,0-.413-1.415,3.155,3.155,0,0,0-.885-1.014,4.052,4.052,0,0,0-1.261-.613,5.491,5.491,0,0,0-1.544-.211,4.234,4.234,0,0,0-2.005.459,4.393,4.393,0,0,0-1.461,1.227,5.531,5.531,0,0,0-.9,1.745,6.664,6.664,0,0,0-.307,2.016,8.593,8.593,0,0,0,.282,2.262,5.168,5.168,0,0,0,.872,1.8,4.058,4.058,0,0,0,1.463,1.19,4.627,4.627,0,0,0,2.051.426,4.255,4.255,0,0,0,1.567-.284,4.19,4.19,0,0,0,1.273-.777,4.017,4.017,0,0,0,.908-1.191,4.779,4.779,0,0,0,.472-1.521h.9a5.667,5.667,0,0,1-.59,1.934,4.719,4.719,0,0,1-1.131,1.426,4.877,4.877,0,0,1-1.557.885,6.023,6.023,0,0,1-4.374-.225,4.852,4.852,0,0,1-1.722-1.426,6.063,6.063,0,0,1-.989-2.062,9.229,9.229,0,0,1-.319-2.441,7.789,7.789,0,0,1,.365-2.4,5.9,5.9,0,0,1,1.074-1.982,5.1,5.1,0,0,1,1.745-1.344,5.47,5.47,0,0,1,2.381-.495,6.616,6.616,0,0,1,1.851.248,4.786,4.786,0,0,1,1.532.741,3.9,3.9,0,0,1,1.1,1.262,4.5,4.5,0,0,1,.518,1.78Z" transform="translate(130.93 35.219)"/>
      <path id="Path_100" data-name="Path 100" d="M177.478,48.438h.071a2.959,2.959,0,0,1,.6-1.108,4.26,4.26,0,0,1,1.06-.9,5.279,5.279,0,0,1,1.392-.578,5.636,5.636,0,0,1,1.592-.177v.9a4.209,4.209,0,0,0-1.615.142,3.918,3.918,0,0,0-1.734,1.037,8.38,8.38,0,0,0-.576.683,3.242,3.242,0,0,0-.413.732,4.67,4.67,0,0,0-.261.9,7.993,7.993,0,0,0-.117,1.179V57.87h-.9V45.75h.9Z" transform="translate(136.501 35.31)"/>
      <path id="Path_101" data-name="Path 101" d="M188.3,55.557h-.048a3.729,3.729,0,0,1-.612,1.025,4.364,4.364,0,0,1-.979.862,4.921,4.921,0,0,1-1.308.589,5.731,5.731,0,0,1-1.6.213,4.739,4.739,0,0,1-2.995-.837,3.088,3.088,0,0,1-1.06-2.583,3.024,3.024,0,0,1,1.5-2.793,4.581,4.581,0,0,1,1.44-.555,13.837,13.837,0,0,1,1.521-.236l1.39-.117a8.213,8.213,0,0,0,1.521-.225,1.93,1.93,0,0,0,.837-.426,1.2,1.2,0,0,0,.353-.7,6.509,6.509,0,0,0,.071-1.06,2.242,2.242,0,0,0-.188-.92,2.077,2.077,0,0,0-.589-.754,2.926,2.926,0,0,0-1.039-.519,5.533,5.533,0,0,0-1.555-.188,4.074,4.074,0,0,0-2.629.8,3.176,3.176,0,0,0-1.1,2.429h-.9a3.964,3.964,0,0,1,1.285-3.007,5.117,5.117,0,0,1,3.383-1,4.859,4.859,0,0,1,3.195.86,2.828,2.828,0,0,1,1,2.252v7.051c0,.172,0,.346.012.518a1.679,1.679,0,0,0,.083.472.7.7,0,0,0,.236.342.743.743,0,0,0,.472.129,4.411,4.411,0,0,0,.66-.069v.754a2.866,2.866,0,0,1-.73.094,2.138,2.138,0,0,1-.862-.142,1.14,1.14,0,0,1-.482-.376,1.374,1.374,0,0,1-.225-.555,3.852,3.852,0,0,1-.058-.7Zm0-4.48a1.708,1.708,0,0,1-1,.543,12.342,12.342,0,0,1-1.5.211l-1.509.142q-.66.072-1.321.2a3.811,3.811,0,0,0-1.19.438,2.424,2.424,0,0,0-.86.835,2.567,2.567,0,0,0-.332,1.379,2.346,2.346,0,0,0,.849,1.993,3.759,3.759,0,0,0,2.335.649,4.577,4.577,0,0,0,2.427-.555,4.294,4.294,0,0,0,1.369-1.273,3.931,3.931,0,0,0,.6-1.39,5.853,5.853,0,0,0,.129-.91Z" transform="translate(138.908 35.219)"/>
      <path id="Path_102" data-name="Path 102" d="M185.918,48.636v-.778h2.17v-2.5a2.587,2.587,0,0,1,.211-1.1,1.962,1.962,0,0,1,.578-.743,2.533,2.533,0,0,1,.849-.426,3.633,3.633,0,0,1,1.025-.14,6.409,6.409,0,0,1,1.062.117v.778a6.41,6.41,0,0,0-1.062-.117,2.2,2.2,0,0,0-1.261.342,1.527,1.527,0,0,0-.507,1.355v2.429h2.523v.778h-2.523V59.978h-.9V48.636Z" transform="translate(143.719 33.205)"/>
      <path id="Path_103" data-name="Path 103" d="M194.9,48.142h-2.642v8.464a3.237,3.237,0,0,0,.167,1.156,1.318,1.318,0,0,0,.507.649,1.781,1.781,0,0,0,.824.27,8.06,8.06,0,0,0,1.121.023v.78a8.341,8.341,0,0,1-1.333-.012,2.692,2.692,0,0,1-1.144-.353,2.075,2.075,0,0,1-.789-.885,3.336,3.336,0,0,1-.248-1.628V48.142h-2.239v-.778h2.239V43.591h.9v3.773H194.9Z" transform="translate(146.196 33.698)"/>
      <path id="Path_104" data-name="Path 104" d="M28.131,18.9c-1.278,6.042-5.108,8.766-11.746,8.766H7.617L2.427,54.387H1.149c-.936,0-1.277-.427-1.106-1.363L8.384,9.7A9.571,9.571,0,0,1,11.532,3.83,16.375,16.375,0,0,1,16.3.766,9.2,9.2,0,0,1,20.044,0a12.015,12.015,0,0,1,3.066.6l3.573,1.021c3.234.936,4.257,2.638,3.4,7.151ZM16.725,25.023c6.128,0,8-2.3,8.936-7.064l1.7-8.853c.683-3.319.6-4.255-1.957-5.021L22,3.149a7.752,7.752,0,0,0-6.98,1.106c-2.9,1.872-3.66,3.83-4.172,6.553L8.384,23.661c-.172,1.021.085,1.362,1.019,1.362Z" transform="translate(0 0.001)"/>
      <path id="Path_105" data-name="Path 105" d="M38.982,54.387c-.936,0-1.278-.426-1.106-1.362l3.658-18.9c.768-4.17-.511-6.553-4.34-6.553H26.387l-5.193,26.81H19.917c-.936,0-1.278-.426-1.106-1.362l8.34-43.407A9.565,9.565,0,0,1,30.3,3.746,15.268,15.268,0,0,1,34.9.766,8.484,8.484,0,0,1,38.472,0a11.928,11.928,0,0,1,3.062.6L45.11,1.617c3.234.938,4.172,2.64,3.319,7.151L46.472,18.9C45.791,22.216,44,24.854,40.6,26.046c3.489,1.106,4.34,4.681,3.489,8.851l-3.83,19.491ZM45.706,9.108c.681-3.319.681-4.255-1.872-5.023l-3.319-.934a7.553,7.553,0,0,0-6.725,1.021,9.144,9.144,0,0,0-4.168,6.553l-2.47,12.768c-.17,1.019.085,1.447,1.021,1.447h6.9c6.128,0,8-2.213,8.936-6.98Z" transform="translate(14.508 0.001)"/>
      <path id="Path_106" data-name="Path 106" d="M61.383,45.281a9.572,9.572,0,0,1-3.149,5.872,16.343,16.343,0,0,1-4.766,3.064,9.209,9.209,0,0,1-3.745.766,11.442,11.442,0,0,1-2.979-.6l-3.576-1.021c-3.234-.936-4.17-2.638-3.319-7.149L46.915,9.7A9.582,9.582,0,0,1,50.064,3.83,16.431,16.431,0,0,1,54.828.766,8.843,8.843,0,0,1,58.489,0a11.925,11.925,0,0,1,3.064.6l3.574,1.019c3.234.938,4.172,2.64,3.319,7.151Zm4.34-36.173c.683-3.319.683-4.255-1.872-5.023l-3.319-.934a7.743,7.743,0,0,0-6.979,1.106c-2.894,1.872-3.661,3.83-4.172,6.553L42.573,45.877c-.679,3.319-.679,4.255,1.872,5.021l3.319.936a7.752,7.752,0,0,0,6.98-1.106c2.894-1.872,3.66-3.83,4.17-6.553Z" transform="translate(30.575 0.001)"/>
      <path id="Path_107" data-name="Path 107" d="M63.232,53.366C60,52.43,59.06,50.728,59.913,46.217L66.977,9.7a9.573,9.573,0,0,1,3.151-5.872A16.352,16.352,0,0,1,74.891.766,8.872,8.872,0,0,1,78.553,0a11.939,11.939,0,0,1,3.064.6l6.213,1.787c.681.17.768.6.511,1.106l-.511.766c-.339.511-.681.766-1.617.511L80.6,3.151a8.135,8.135,0,0,0-6.98,1.106,9.156,9.156,0,0,0-4.17,6.553L62.636,45.877c-.681,3.319-.681,4.255,1.872,5.021l3.319.936a8.129,8.129,0,0,0,6.979-1.106,9.147,9.147,0,0,0,4.172-6.553l2.213-11.236c.17-.936-.085-1.447-1.021-1.447H77.446c-.938,0-1.191-.426-1.023-1.277l.257-1.362h6.638c1.021,0,1.191.511,1.021,1.532l-2.9,14.9A9.562,9.562,0,0,1,78.3,51.153a16.367,16.367,0,0,1-4.766,3.064,9.211,9.211,0,0,1-3.746.766,11.431,11.431,0,0,1-2.977-.6Z" transform="translate(46.084 0.001)"/>
      <path id="Path_108" data-name="Path 108" d="M98.406,54.387c-.936,0-1.278-.426-1.106-1.362l3.658-18.9c.768-4.17-.511-6.553-4.34-6.553H85.811l-5.193,26.81H79.341c-.936,0-1.278-.426-1.106-1.362l8.34-43.407a9.565,9.565,0,0,1,3.151-5.872A15.268,15.268,0,0,1,94.32.766,8.483,8.483,0,0,1,97.9,0a11.928,11.928,0,0,1,3.062.6l3.576,1.019c3.234.938,4.172,2.64,3.319,7.151L105.9,18.9c-.681,3.319-2.468,5.957-5.872,7.149,3.489,1.106,4.34,4.681,3.489,8.851l-3.83,19.491ZM105.13,9.108c.681-3.319.681-4.255-1.872-5.023l-3.319-.934a7.553,7.553,0,0,0-6.725,1.021,9.143,9.143,0,0,0-4.168,6.553l-2.47,12.768c-.17,1.019.085,1.447,1.021,1.447h6.9c6.128,0,8-2.213,8.936-6.98Z" transform="translate(60.444 0.001)"/>
      <path id="Path_109" data-name="Path 109" d="M106.735,9.7a9.572,9.572,0,0,1,3.149-5.872A16.328,16.328,0,0,1,114.651.766,8.817,8.817,0,0,1,118.309,0a12,12,0,0,1,3.066.6l3.573,1.021c3.236.936,4.172,2.638,3.323,7.151l-8.854,45.62h-1.275c-.938,0-1.277-.427-1.106-1.362l4.594-23.833c.172-1.021-.083-1.447-1.021-1.447H105.969l-5.191,26.641H99.5c-.936,0-1.278-.427-1.106-1.362Zm0,13.959c-.17,1.021.085,1.447,1.021,1.447H122.4l3.149-16c.681-3.321.681-4.257-1.872-5.023l-3.319-.936a7.753,7.753,0,0,0-6.98,1.106c-2.894,1.872-3.66,3.83-4.168,6.553Z" transform="translate(76.028 0.001)"/>
      <path id="Path_110" data-name="Path 110" d="M139.672,54.387c-.934,0-1.277-.426-1.106-1.362L145.8,15.491c.851-4.255,1.957-8.851,2.894-12.34-1.959,2.979-4,6.383-6.214,9.617l-5.36,7.746c-.512.764-1.449.594-1.789-.427l-2.553-8a90.937,90.937,0,0,1-2.213-8.936c-.34,3.489-1.362,9.106-2.128,13.106l-7.406,38.131h-1.275c-.938,0-1.278-.426-1.106-1.362l9.957-51.153A1.825,1.825,0,0,1,129.714.511l.851-.34a2.158,2.158,0,0,1,.681-.083c.426,0,.6.339.851,1.19l4.766,15.236,10.383-14.9C148.014.511,148.437,0,149.12,0a1.63,1.63,0,0,1,.681.17l.681.255c.511.172.766.768.6,1.787L140.95,54.387Z" transform="translate(91.687 0.001)"/>
      <path id="Path_111" data-name="Path 111" d="M160.7,54.387c-.934,0-1.277-.426-1.106-1.362l7.236-37.535c.851-4.255,1.957-8.851,2.894-12.34-1.959,2.979-4,6.383-6.214,9.617l-5.36,7.746c-.512.764-1.449.594-1.789-.427l-2.553-8a90.928,90.928,0,0,1-2.213-8.936c-.34,3.489-1.362,9.106-2.128,13.106l-7.406,38.131h-1.275c-.938,0-1.278-.426-1.106-1.362l9.957-51.153A1.825,1.825,0,0,1,150.738.511l.851-.34a2.158,2.158,0,0,1,.681-.083c.426,0,.6.339.851,1.19l4.766,15.236,10.383-14.9C169.038.511,169.461,0,170.144,0a1.63,1.63,0,0,1,.681.17l.681.255c.511.172.766.768.6,1.787L161.974,54.387Z" transform="translate(107.939 0.001)"/>
      <path id="Path_112" data-name="Path 112" d="M169.038,9.7a9.572,9.572,0,0,1,3.149-5.872A16.329,16.329,0,0,1,176.955.766,8.817,8.817,0,0,1,180.612,0a12,12,0,0,1,3.066.6l3.573,1.021c3.236.936,4.172,2.638,3.323,7.151l-8.854,45.62h-1.275c-.938,0-1.277-.427-1.106-1.362l4.594-23.833c.172-1.021-.083-1.447-1.021-1.447H168.272l-5.191,26.641H161.8c-.936,0-1.278-.427-1.106-1.362Zm0,13.959c-.17,1.021.085,1.447,1.021,1.447H184.7l3.149-16c.681-3.321.681-4.257-1.872-5.023l-3.319-.936a7.753,7.753,0,0,0-6.98,1.106c-2.894,1.872-3.66,3.83-4.168,6.553Z" transform="translate(124.19 0.001)"/>
      <path id="Path_113" data-name="Path 113" d="M184.209,54.127c-.934,0-1.277-.426-1.106-1.362l9.7-49.792h-8.682c-.934,0-1.277-.424-1.106-1.447l.257-1.19h21.361c.938,0,1.277.424,1.108,1.36l-.257,1.277H195.444l-9.957,51.153Z" transform="translate(141.444 0.261)"/>
      <path id="Path_114" data-name="Path 114" d="M197.59,54.387h-1.277c-.936,0-1.277-.426-1.106-1.362l9.957-51.153A1.582,1.582,0,0,1,206.271.426l.681-.255a2.716,2.716,0,0,1,.683-.17c.339,0,.509.17.424.6Z" transform="translate(150.867 0.001)"/>
      <path id="Path_115" data-name="Path 115" d="M212.737,9.7a9.582,9.582,0,0,1,3.149-5.874A16.416,16.416,0,0,1,220.652.766,8.859,8.859,0,0,1,224.312,0a11.937,11.937,0,0,1,3.066.6l6.213,1.787c.681.17.766.6.511,1.106l-.511.766c-.34.511-.681.766-1.617.511l-5.617-1.617a7.747,7.747,0,0,0-6.98,1.106c-2.894,1.872-3.66,3.83-4.17,6.553l-6.555,33.618c-.679,3.321-.679,4.257,1.874,5.023l10.725,3.064c1.019.255,1.019.766.681,1.277l-.512.766a1.1,1.1,0,0,1-.936.426,3.657,3.657,0,0,1-1.021-.17l-10.214-2.894c-3.232-.936-4.168-2.638-3.319-7.149Z" transform="translate(158.957 0.001)"/>
    </g>
  </g>
</svg>
